<svg xmlns="http://www.w3.org/2000/svg" xmlns:xlink="http://www.w3.org/1999/xlink" width="500" zoomAndPan="magnify" viewBox="0 0 375 374.999991" height="500" preserveAspectRatio="xMidYMid meet" version="1.0"><defs><g/><clipPath id="dfc2a02190"><path d="M 151.832031 110.246094 L 223 110.246094 L 223 202.496094 L 151.832031 202.496094 Z M 151.832031 110.246094 " clip-rule="nonzero"/></clipPath><clipPath id="cab5f8f28d"><rect x="0" width="189" y="0" height="33"/></clipPath></defs><path fill="#ff914d" d="M 189.460938 197.902344 C 189.710938 194.460938 189.089844 190.945312 189.039062 187.507812 C 188.976562 183.113281 188.257812 178.757812 188.230469 174.363281 C 187.75 174.347656 187.269531 174.332031 186.792969 174.332031 C 186.265625 174.332031 185.738281 174.332031 185.207031 174.320312 C 185.195312 174.359375 185.179688 174.402344 185.171875 174.445312 C 185.15625 174.492188 185.140625 174.542969 185.121094 174.589844 C 185.167969 174.742188 185.183594 174.894531 185.171875 175.050781 C 184.996094 177.089844 185.589844 179.15625 185.589844 181.207031 C 185.589844 183.355469 185.601562 185.507812 185.589844 187.664062 C 185.566406 191.59375 185.394531 195.523438 185.078125 199.445312 C 185.617188 199.445312 186.148438 199.445312 186.683594 199.429688 C 187.316406 199.417969 187.945312 199.371094 188.574219 199.28125 C 188.761719 199.257812 188.945312 199.21875 189.121094 199.164062 C 189.183594 199.144531 189.242188 199.121094 189.300781 199.09375 C 189.429688 198.953125 189.582031 198.847656 189.761719 198.78125 C 189.53125 198.53125 189.433594 198.238281 189.460938 197.902344 Z M 189.460938 197.902344 " fill-opacity="1" fill-rule="nonzero"/><path fill="#10b5b8" d="M 168.496094 123.585938 C 167.65625 123.609375 166.972656 123.839844 166.472656 124.5625 C 166.125 125.054688 165.984375 125.601562 166.054688 126.203125 C 166.386719 126.320312 166.582031 126.550781 166.644531 126.898438 C 167.238281 129.34375 171.457031 128.070312 171.65625 125.941406 C 171.804688 124.402344 169.761719 123.542969 168.496094 123.585938 Z M 168.496094 123.585938 " fill-opacity="1" fill-rule="nonzero"/><path fill="#ff914d" d="M 181.796875 174.148438 C 180.941406 174.226562 179.925781 174.414062 179.015625 174.28125 C 178.980469 174.375 178.945312 174.476562 178.917969 174.574219 C 178.792969 175.023438 178.6875 175.472656 178.585938 175.925781 C 178.433594 176.679688 178.234375 177.421875 177.992188 178.152344 C 177.050781 180.800781 176.210938 183.492188 175.113281 186.082031 C 174.054688 188.582031 172.984375 191.050781 171.800781 193.492188 C 170.855469 195.441406 169.925781 197.394531 169.109375 199.398438 C 171.234375 199.367188 173.375 199.335938 175.46875 199.667969 C 177.121094 195.054688 178.265625 190.296875 179.84375 185.664062 C 181.125 181.902344 181.339844 177.84375 182.832031 174.152344 C 182.488281 174.121094 182.140625 174.121094 181.796875 174.148438 Z M 181.796875 174.148438 " fill-opacity="1" fill-rule="nonzero"/><path fill="#107173" d="M 181.21875 119.671875 C 179.289062 115.515625 174.566406 112.765625 170.035156 112.664062 C 165.367188 112.5625 161.703125 115.296875 159.160156 119.035156 C 157.566406 121.398438 156.367188 124.230469 156.066406 127.0625 C 155.800781 129.582031 156.28125 131.949219 157.507812 134.164062 C 157.613281 134.285156 157.6875 134.417969 157.734375 134.570312 C 157.886719 134.832031 158.046875 135.09375 158.21875 135.347656 C 158.359375 135.542969 158.425781 135.757812 158.421875 135.996094 C 159.324219 137.351562 160.773438 138.347656 162.214844 139.054688 C 164.140625 140 166.378906 140.753906 168.550781 140.730469 C 173.703125 140.671875 178.546875 137.4375 180.753906 132.789062 C 182.613281 128.863281 183.082031 123.679688 181.21875 119.671875 Z M 165.167969 129.015625 C 165.132812 128.980469 165.097656 128.949219 165.0625 128.910156 C 162.761719 126.390625 163.972656 122.132812 167.433594 121.460938 C 169.972656 120.96875 173.589844 122.445312 173.863281 125.339844 C 174.269531 129.667969 167.503906 132.203125 165.167969 129.015625 Z M 165.167969 129.015625 " fill-opacity="1" fill-rule="nonzero"/><path fill="#10b5b8" d="M 199.320312 123.585938 C 198.480469 123.609375 197.796875 123.839844 197.296875 124.5625 C 196.949219 125.054688 196.808594 125.601562 196.878906 126.203125 C 197.210938 126.320312 197.40625 126.550781 197.46875 126.898438 C 198.070312 129.34375 202.292969 128.074219 202.496094 125.941406 C 202.632812 124.402344 200.59375 123.542969 199.320312 123.585938 Z M 199.320312 123.585938 " fill-opacity="1" fill-rule="nonzero"/><path fill="#107173" d="M 212.050781 119.671875 C 210.117188 115.515625 205.402344 112.765625 200.867188 112.664062 C 196.199219 112.5625 192.53125 115.296875 189.988281 119.035156 C 188.386719 121.398438 187.195312 124.230469 186.894531 127.0625 C 186.628906 129.582031 187.105469 131.949219 188.328125 134.167969 C 188.433594 134.285156 188.507812 134.421875 188.554688 134.574219 C 188.707031 134.835938 188.871094 135.09375 189.042969 135.347656 C 189.183594 135.542969 189.25 135.761719 189.246094 136 C 190.144531 137.355469 191.597656 138.351562 193.039062 139.058594 C 194.964844 140.003906 197.203125 140.757812 199.375 140.730469 C 204.527344 140.671875 209.371094 137.441406 211.578125 132.792969 C 213.441406 128.863281 213.910156 123.679688 212.050781 119.671875 Z M 196 129.015625 C 195.960938 128.984375 195.925781 128.949219 195.894531 128.910156 C 193.589844 126.390625 194.804688 122.132812 198.261719 121.460938 C 200.804688 120.96875 204.417969 122.445312 204.691406 125.339844 C 205.101562 129.667969 198.332031 132.203125 196 129.015625 Z M 196 129.015625 " fill-opacity="1" fill-rule="nonzero"/><path fill="#107173" d="M 156.273438 151.242188 L 156.234375 151.242188 C 155.984375 151.265625 155.757812 151.207031 155.550781 151.066406 L 155.425781 151.066406 C 155.144531 151.078125 154.867188 151.101562 154.589844 151.125 L 154.203125 151.167969 C 154.113281 151.914062 154.230469 152.664062 154.328125 153.414062 C 155.027344 153.375 155.777344 153.367188 156.410156 153.558594 C 156.386719 152.792969 156.351562 152.015625 156.273438 151.242188 Z M 156.273438 151.242188 " fill-opacity="1" fill-rule="nonzero"/><path fill="#107173" d="M 207.875 140.285156 C 204.480469 142.550781 200.3125 143.523438 196.273438 142.558594 C 194.871094 142.226562 193.515625 141.753906 192.207031 141.140625 C 192.007812 141.417969 191.738281 141.550781 191.398438 141.53125 L 191.238281 141.53125 C 185.925781 141.53125 180.535156 141.261719 175.25 141.933594 C 174.941406 141.984375 174.671875 141.90625 174.4375 141.699219 C 173.027344 142.324219 171.550781 142.707031 170.011719 142.855469 C 168.472656 143 166.953125 142.902344 165.445312 142.558594 C 163.800781 142.171875 162.222656 141.59375 160.722656 140.8125 C 160.238281 141.21875 159.417969 141.25 159.050781 140.625 C 158.960938 140.652344 158.875 140.683594 158.789062 140.722656 C 158.648438 140.777344 158.519531 140.855469 158.402344 140.953125 C 157.921875 141.386719 157.488281 141.824219 157.351562 142.484375 C 157.082031 143.789062 157.40625 144.996094 157.683594 146.265625 C 158 147.660156 158.238281 149.066406 158.398438 150.488281 C 158.726562 153.492188 158.757812 156.503906 158.488281 159.511719 C 158.285156 161.722656 157.613281 164.800781 160.261719 165.714844 C 162.441406 166.46875 164.917969 165.875 167.132812 165.660156 C 173.539062 165.054688 179.851562 166.191406 186.242188 166.417969 C 189.539062 166.535156 192.875 166.4375 196.171875 166.316406 C 199.117188 166.203125 202.242188 166.453125 205.078125 165.507812 C 205.910156 164.992188 206.71875 164.335938 206.898438 163.316406 C 207.089844 162.257812 206.871094 161.179688 206.65625 160.136719 C 206.589844 159.878906 206.625 159.640625 206.765625 159.417969 C 206.726562 159.375 206.667969 159.316406 206.613281 159.257812 C 206.332031 159.046875 206.207031 158.769531 206.230469 158.425781 C 206.214844 158.335938 206.203125 158.25 206.1875 158.164062 C 206.070312 157.445312 205.960938 156.722656 205.886719 155.996094 C 205.730469 154.546875 205.652344 153.09375 205.644531 151.636719 C 205.640625 151.34375 205.734375 151.085938 205.925781 150.867188 C 206.121094 150.644531 206.363281 150.519531 206.65625 150.488281 C 207.179688 149.652344 208.15625 148.960938 209.097656 148.886719 C 209.160156 145.976562 209.335938 142.875 207.875 140.285156 Z M 207.875 140.285156 " fill-opacity="1" fill-rule="nonzero"/><path fill="#107173" d="M 219.660156 139.574219 C 219.601562 139.613281 219.546875 139.644531 219.527344 139.664062 C 219.113281 139.972656 218.726562 140.308594 218.359375 140.675781 C 217.28125 141.734375 216.269531 142.855469 215.324219 144.039062 C 214.285156 145.289062 213.347656 146.609375 212.519531 148.007812 C 212.179688 148.574219 211.890625 149.164062 211.652344 149.78125 C 211.554688 150.066406 211.503906 150.359375 211.5 150.660156 C 211.605469 151.71875 210.417969 152.078125 209.738281 151.625 C 209.441406 151.578125 209.214844 151.425781 209.0625 151.167969 L 209.050781 151.148438 C 208.976562 151.195312 208.90625 151.246094 208.835938 151.300781 C 208.835938 151.300781 208.804688 151.335938 208.757812 151.378906 C 208.714844 151.421875 208.648438 151.503906 208.59375 151.570312 C 208.59375 151.578125 208.578125 151.601562 208.554688 151.644531 C 208.410156 151.933594 208.179688 152.117188 207.867188 152.199219 C 207.90625 154.085938 208.074219 155.964844 208.375 157.828125 C 208.421875 157.871094 208.464844 157.921875 208.503906 157.972656 C 208.550781 158.03125 208.585938 158.097656 208.621094 158.164062 C 209.707031 158.234375 209.609375 157.457031 209.523438 156.542969 C 209.414062 155.417969 209.21875 154.316406 209.296875 153.179688 C 209.394531 151.75 211.578125 152.191406 211.484375 153.605469 C 211.378906 155.109375 212.027344 156.617188 211.707031 158.128906 C 211.621094 158.574219 211.445312 158.980469 211.171875 159.34375 C 211.253906 159.351562 211.332031 159.367188 211.414062 159.394531 C 213.917969 160.179688 215.238281 162.445312 216.945312 164.25 C 217.675781 165.035156 218.492188 165.929688 219.347656 166.574219 C 219.804688 166.917969 219.785156 166.832031 219.828125 166.269531 C 219.863281 165.789062 219.8125 165.296875 219.804688 164.8125 C 219.789062 164.441406 219.925781 164.140625 220.222656 163.910156 C 220.261719 159.863281 220.398438 155.824219 220.410156 151.785156 C 220.421875 147.761719 220.960938 143.433594 219.660156 139.574219 Z M 219.660156 139.574219 " fill-opacity="1" fill-rule="nonzero"/><path fill="#ff914d" d="M 199.503906 186.019531 C 197.355469 182.375 195.730469 178.21875 192.855469 175.058594 C 192.644531 174.828125 192.539062 174.558594 192.546875 174.246094 C 191.855469 174.367188 191.15625 174.425781 190.453125 174.421875 C 190.464844 175.214844 190.496094 176.007812 190.542969 176.796875 C 190.683594 176.78125 190.820312 176.792969 190.957031 176.835938 C 191.09375 176.878906 191.214844 176.949219 191.324219 177.042969 C 191.429688 177.136719 191.511719 177.25 191.574219 177.378906 C 191.632812 177.507812 191.664062 177.644531 191.664062 177.789062 C 191.722656 179.027344 192.449219 180.128906 193.003906 181.203125 C 193.640625 182.449219 194.082031 183.777344 194.578125 185.078125 C 195.65625 187.902344 196.773438 190.699219 198.15625 193.390625 C 198.65625 194.328125 199.078125 195.300781 199.421875 196.304688 C 199.570312 196.753906 199.703125 197.214844 199.875 197.65625 C 199.96875 197.910156 200.085938 198.15625 200.222656 198.390625 C 201.042969 198.511719 201.964844 197.890625 202.734375 197.667969 C 203.570312 197.460938 204.417969 197.371094 205.277344 197.398438 C 203.25 193.652344 201.667969 189.683594 199.503906 186.019531 Z M 199.503906 186.019531 " fill-opacity="1" fill-rule="nonzero"/><path fill="#ff914d" d="M 193.128906 168.945312 C 193.0625 168.84375 193.011719 168.734375 192.976562 168.617188 C 191.050781 168.648438 189.128906 168.652344 187.195312 168.652344 C 184.21875 168.652344 181.265625 168.367188 178.3125 168.113281 C 178.371094 168.628906 178.417969 169.144531 178.484375 169.660156 C 178.539062 170.21875 178.648438 170.765625 178.816406 171.300781 C 178.867188 171.488281 178.941406 171.664062 179.039062 171.828125 C 179.117188 171.945312 179.253906 172.03125 179.160156 172.03125 C 180.097656 172.191406 181.074219 171.921875 182.015625 171.898438 C 183.429688 171.863281 184.871094 172.101562 186.296875 172.101562 C 188.246094 172.101562 190.234375 172.355469 192.167969 172.046875 C 192.457031 172.027344 192.734375 171.953125 192.996094 171.820312 C 192.9375 171.84375 193.066406 171.660156 193.082031 171.570312 C 193.128906 171.347656 193.160156 171.121094 193.179688 170.890625 C 193.203125 170.242188 193.1875 169.59375 193.128906 168.945312 Z M 193.128906 168.945312 " fill-opacity="1" fill-rule="nonzero"/><path fill="#000000" d="M 204.691406 125.339844 C 204.417969 122.445312 200.804688 120.96875 198.261719 121.460938 C 194.804688 122.132812 193.589844 126.390625 195.894531 128.910156 C 195.925781 128.949219 195.960938 128.984375 196 129.015625 C 198.332031 132.203125 205.101562 129.667969 204.691406 125.339844 Z M 202.492188 125.945312 C 202.289062 128.074219 198.070312 129.347656 197.476562 126.902344 C 197.414062 126.554688 197.214844 126.324219 196.882812 126.207031 C 196.816406 125.605469 196.953125 125.058594 197.300781 124.566406 C 197.796875 123.84375 198.480469 123.613281 199.324219 123.589844 C 200.59375 123.542969 202.632812 124.402344 202.496094 125.941406 Z M 202.492188 125.945312 " fill-opacity="1" fill-rule="nonzero"/><g clip-path="url(#dfc2a02190)"><path fill="#000000" d="M 221.761719 138.839844 C 221.644531 138.429688 221.375 138.191406 220.953125 138.128906 C 220.90625 137.910156 220.804688 137.71875 220.644531 137.5625 C 219.742188 136.648438 218.417969 137.671875 217.699219 138.285156 C 216.378906 139.445312 215.164062 140.707031 214.058594 142.070312 C 213.070312 143.246094 212.152344 144.476562 211.304688 145.757812 C 211.234375 143.414062 210.914062 141.117188 209.6875 138.988281 C 209.671875 138.964844 209.65625 138.941406 209.640625 138.917969 C 216.214844 133.066406 217.773438 121.464844 211.402344 114.917969 C 208.804688 112.273438 204.925781 110.710938 201.261719 110.46875 C 197.808594 110.246094 194.535156 111.410156 191.882812 113.605469 C 188.746094 116.199219 186.597656 119.808594 185.359375 123.648438 C 184.714844 125.613281 184.492188 127.628906 184.691406 129.6875 C 184.894531 131.746094 185.507812 133.679688 186.523438 135.480469 C 187.039062 137.011719 188.027344 138.273438 189.261719 139.292969 C 185.589844 139.261719 181.890625 139.171875 178.226562 139.410156 L 178.246094 139.398438 C 185.292969 133.730469 187.113281 121.652344 180.5625 114.917969 C 177.976562 112.265625 174.097656 110.703125 170.445312 110.46875 C 166.988281 110.246094 163.71875 111.410156 161.0625 113.605469 C 157.914062 116.207031 155.769531 119.816406 154.53125 123.65625 C 153.882812 125.621094 153.660156 127.632812 153.863281 129.695312 C 154.066406 131.753906 154.675781 133.683594 155.695312 135.488281 C 156.140625 136.765625 156.859375 137.867188 157.855469 138.789062 C 157.28125 139.070312 156.761719 139.433594 156.296875 139.875 C 154.53125 141.636719 154.933594 144.5 155.503906 146.660156 C 155.695312 147.382812 155.847656 148.121094 155.972656 148.871094 C 155.039062 148.710938 153.824219 149.011719 153.027344 149.023438 C 152.183594 149.039062 151.894531 149.8125 152.09375 150.441406 C 152.058594 150.539062 152.03125 150.640625 152.019531 150.742188 C 151.851562 152.082031 152.167969 153.355469 152.207031 154.683594 C 152.222656 155.316406 152.8125 155.71875 153.398438 155.710938 C 153.902344 155.699219 155.578125 155.332031 155.828125 155.828125 C 155.949219 156.097656 156.152344 156.265625 156.4375 156.339844 C 156.398438 157.574219 156.261719 158.804688 156.234375 160.035156 C 156.214844 161.300781 155.976562 162.539062 156.113281 163.804688 C 156.746094 169.472656 163.898438 168.175781 167.757812 167.855469 C 170.539062 167.621094 173.300781 167.734375 176.054688 167.941406 C 176.289062 169.515625 176.191406 171.671875 177.066406 173.046875 C 176.476562 174.074219 176.355469 175.722656 176.136719 176.628906 C 175.542969 179.121094 174.480469 181.625 173.550781 184.011719 C 171.429688 189.460938 168.480469 194.554688 166.46875 200.046875 C 166.171875 200.867188 166.648438 201.65625 167.550781 201.652344 C 170.355469 201.652344 173.199219 201.441406 175.957031 202.039062 C 176.402344 202.136719 177 201.890625 177.171875 201.441406 C 178.921875 196.742188 180.308594 191.929688 181.710938 187.117188 C 182.339844 184.941406 182.902344 182.789062 183.359375 180.574219 L 183.359375 180.589844 C 183.402344 182.75 183.359375 184.910156 183.359375 187.066406 C 183.359375 191.496094 183.164062 195.917969 182.769531 200.328125 C 182.703125 201.085938 183.175781 201.648438 183.949219 201.652344 C 185.273438 201.652344 186.601562 201.691406 187.925781 201.589844 C 189.195312 201.496094 190.773438 201.324219 191.230469 199.945312 C 191.347656 199.652344 191.316406 199.375 191.136719 199.113281 C 191.46875 198.953125 191.632812 198.691406 191.632812 198.328125 C 191.890625 194.789062 191.265625 191.242188 191.246094 187.707031 C 191.246094 185.828125 191.101562 183.957031 190.941406 182.089844 C 191.582031 183.414062 192.070312 184.792969 192.601562 186.175781 C 193.230469 187.832031 193.890625 189.480469 194.59375 191.109375 C 195.253906 192.636719 196.089844 194.082031 196.738281 195.609375 C 197.453125 197.285156 197.777344 200.277344 199.976562 200.605469 C 201.117188 200.78125 202.242188 200.171875 203.285156 199.816406 C 204.011719 199.574219 204.960938 199.648438 205.714844 199.632812 C 206.429688 199.621094 207.132812 199.761719 207.640625 199.15625 C 207.773438 198.992188 207.851562 198.808594 207.878906 198.601562 C 208.035156 198.328125 208.066406 198.042969 207.976562 197.746094 C 207.894531 197.484375 207.765625 197.246094 207.589844 197.039062 C 205.316406 193.050781 203.628906 188.757812 201.328125 184.785156 C 199.128906 180.980469 197.363281 176.824219 194.410156 173.519531 C 195.65625 172.441406 195.421875 170.25 195.3125 168.578125 C 195.921875 168.558594 196.515625 168.539062 197.117188 168.515625 C 200.0625 168.394531 203.042969 168.566406 205.875 167.589844 C 206 167.550781 206.109375 167.492188 206.210938 167.414062 C 207.460938 166.652344 208.523438 165.621094 208.941406 164.175781 C 209.308594 162.917969 209.164062 161.617188 208.921875 160.351562 C 209.355469 160.332031 209.773438 160.238281 210.171875 160.070312 C 210.128906 160.222656 210.117188 160.378906 210.136719 160.535156 C 210.15625 160.691406 210.207031 160.839844 210.28125 160.980469 C 210.359375 161.117188 210.460938 161.234375 210.585938 161.335938 C 210.707031 161.433594 210.84375 161.507812 210.996094 161.550781 C 212.359375 161.976562 213.390625 163.4375 214.261719 164.484375 C 215.164062 165.574219 216.160156 166.527344 217.144531 167.535156 C 218.0625 168.480469 219.425781 169.519531 220.773438 168.730469 C 221.640625 168.222656 221.929688 167.410156 222.019531 166.527344 C 222.308594 166.300781 222.449219 166.003906 222.4375 165.636719 C 222.4375 160.953125 222.617188 156.273438 222.640625 151.589844 C 222.652344 147.371094 223.140625 142.910156 221.761719 138.839844 Z M 154.328125 153.421875 C 154.230469 152.671875 154.113281 151.917969 154.203125 151.171875 L 154.589844 151.132812 C 154.867188 151.105469 155.144531 151.082031 155.425781 151.070312 L 155.550781 151.070312 C 155.757812 151.210938 155.984375 151.269531 156.234375 151.246094 L 156.273438 151.246094 C 156.339844 152.019531 156.386719 152.796875 156.410156 153.570312 C 155.777344 153.375 155.027344 153.375 154.328125 153.421875 Z M 189.246094 135.996094 C 189.25 135.757812 189.183594 135.539062 189.042969 135.34375 C 188.871094 135.089844 188.707031 134.832031 188.554688 134.566406 C 188.511719 134.417969 188.4375 134.28125 188.332031 134.164062 C 187.109375 131.945312 186.628906 129.582031 186.894531 127.0625 C 187.195312 124.230469 188.386719 121.382812 189.988281 119.035156 C 192.53125 115.296875 196.199219 112.558594 200.867188 112.664062 C 205.402344 112.761719 210.117188 115.511719 212.050781 119.667969 C 213.910156 123.675781 213.441406 128.863281 211.582031 132.785156 C 209.371094 137.441406 204.53125 140.667969 199.375 140.726562 C 197.207031 140.75 194.964844 139.996094 193.042969 139.050781 C 191.597656 138.347656 190.152344 137.351562 189.246094 135.996094 Z M 157.734375 134.578125 C 157.6875 134.425781 157.613281 134.292969 157.507812 134.171875 C 156.28125 131.953125 155.800781 129.585938 156.066406 127.0625 C 156.367188 124.230469 157.566406 121.398438 159.160156 119.035156 C 161.703125 115.300781 165.367188 112.558594 170.035156 112.664062 C 174.574219 112.765625 179.289062 115.515625 181.21875 119.671875 C 183.082031 123.679688 182.613281 128.863281 180.75 132.789062 C 178.542969 137.441406 173.699219 140.667969 168.546875 140.726562 C 166.375 140.753906 164.136719 140 162.210938 139.054688 C 160.769531 138.347656 159.316406 137.351562 158.417969 135.996094 C 158.421875 135.757812 158.355469 135.539062 158.214844 135.34375 C 158.046875 135.089844 157.886719 134.832031 157.734375 134.566406 Z M 179.84375 185.667969 C 178.265625 190.300781 177.121094 195.058594 175.46875 199.671875 C 173.375 199.339844 171.234375 199.371094 169.109375 199.402344 C 169.917969 197.398438 170.855469 195.445312 171.800781 193.496094 C 172.984375 191.054688 174.054688 188.585938 175.113281 186.085938 C 176.210938 183.496094 177.050781 180.804688 177.992188 178.15625 C 178.234375 177.429688 178.433594 176.6875 178.585938 175.929688 C 178.6875 175.476562 178.789062 175.027344 178.917969 174.578125 C 178.945312 174.480469 178.980469 174.378906 179.015625 174.285156 C 179.925781 174.417969 180.941406 174.230469 181.796875 174.152344 C 182.140625 174.125 182.484375 174.125 182.832031 174.152344 C 181.339844 177.847656 181.125 181.914062 179.84375 185.667969 Z M 189.300781 199.082031 C 189.242188 199.109375 189.183594 199.132812 189.121094 199.152344 C 188.945312 199.210938 188.761719 199.25 188.574219 199.273438 C 187.945312 199.359375 187.316406 199.410156 186.683594 199.417969 C 186.148438 199.441406 185.617188 199.441406 185.078125 199.433594 C 185.394531 195.515625 185.566406 191.585938 185.589844 187.652344 C 185.605469 185.5 185.589844 183.347656 185.589844 181.195312 C 185.589844 179.148438 184.996094 177.078125 185.171875 175.039062 C 185.183594 174.882812 185.167969 174.730469 185.121094 174.582031 C 185.140625 174.53125 185.15625 174.484375 185.171875 174.433594 C 185.179688 174.390625 185.195312 174.351562 185.207031 174.308594 C 185.738281 174.308594 186.265625 174.308594 186.792969 174.320312 C 187.269531 174.320312 187.75 174.335938 188.230469 174.355469 C 188.257812 178.75 188.972656 183.101562 189.039062 187.496094 C 189.089844 190.9375 189.710938 194.457031 189.460938 197.890625 C 189.433594 198.230469 189.535156 198.523438 189.761719 198.773438 C 189.582031 198.839844 189.429688 198.941406 189.300781 199.082031 Z M 186.304688 172.097656 C 184.886719 172.097656 183.4375 171.867188 182.023438 171.894531 C 181.082031 171.921875 180.105469 172.1875 179.167969 172.03125 C 179.261719 172.03125 179.125 171.941406 179.046875 171.828125 C 178.949219 171.660156 178.875 171.484375 178.824219 171.300781 C 178.65625 170.765625 178.546875 170.214844 178.492188 169.65625 C 178.425781 169.144531 178.378906 168.625 178.320312 168.109375 C 181.273438 168.367188 184.226562 168.652344 187.203125 168.652344 C 189.128906 168.652344 191.058594 168.652344 192.984375 168.617188 C 193.019531 168.734375 193.070312 168.84375 193.136719 168.945312 C 193.195312 169.589844 193.210938 170.238281 193.1875 170.886719 C 193.171875 171.117188 193.140625 171.34375 193.089844 171.566406 C 193.074219 171.65625 192.949219 171.839844 193.007812 171.816406 C 192.746094 171.949219 192.46875 172.023438 192.175781 172.042969 C 190.234375 172.355469 188.246094 172.101562 186.304688 172.097656 Z M 199.511719 186.019531 C 201.675781 189.683594 203.257812 193.652344 205.285156 197.390625 C 204.425781 197.363281 203.578125 197.453125 202.742188 197.660156 C 201.976562 197.882812 201.050781 198.503906 200.230469 198.382812 C 200.09375 198.148438 199.976562 197.902344 199.882812 197.648438 C 199.710938 197.207031 199.578125 196.746094 199.429688 196.296875 C 199.085938 195.292969 198.664062 194.320312 198.164062 193.382812 C 196.785156 190.691406 195.664062 187.894531 194.585938 185.070312 C 194.089844 183.769531 193.648438 182.441406 193.011719 181.195312 C 192.457031 180.121094 191.730469 179.019531 191.671875 177.78125 C 191.671875 177.636719 191.640625 177.5 191.582031 177.371094 C 191.519531 177.242188 191.4375 177.128906 191.332031 177.035156 C 191.222656 176.941406 191.101562 176.871094 190.964844 176.828125 C 190.832031 176.785156 190.691406 176.773438 190.550781 176.789062 C 190.503906 176 190.472656 175.207031 190.460938 174.414062 C 191.164062 174.417969 191.863281 174.359375 192.554688 174.238281 C 192.546875 174.550781 192.652344 174.820312 192.863281 175.050781 C 195.730469 178.21875 197.355469 182.375 199.503906 186.019531 Z M 206.664062 150.488281 C 206.371094 150.519531 206.128906 150.648438 205.933594 150.867188 C 205.738281 151.085938 205.644531 151.34375 205.648438 151.636719 C 205.652344 153.097656 205.730469 154.554688 205.878906 156.003906 C 205.957031 156.730469 206.0625 157.453125 206.183594 158.175781 C 206.195312 158.261719 206.207031 158.347656 206.222656 158.433594 C 206.199219 158.78125 206.328125 159.058594 206.605469 159.265625 C 206.664062 159.328125 206.71875 159.386719 206.761719 159.425781 C 206.621094 159.648438 206.582031 159.890625 206.648438 160.148438 C 206.867188 161.1875 207.082031 162.269531 206.894531 163.328125 C 206.710938 164.339844 205.90625 165.003906 205.070312 165.515625 C 202.238281 166.460938 199.113281 166.214844 196.167969 166.324219 C 192.867188 166.449219 189.53125 166.542969 186.234375 166.425781 C 179.84375 166.199219 173.53125 165.058594 167.125 165.671875 C 164.898438 165.875 162.4375 166.480469 160.257812 165.726562 C 157.605469 164.8125 158.28125 161.730469 158.480469 159.523438 C 158.75 156.511719 158.722656 153.503906 158.394531 150.5 C 158.230469 149.078125 157.992188 147.671875 157.679688 146.277344 C 157.398438 145.007812 157.070312 143.796875 157.347656 142.492188 C 157.484375 141.835938 157.914062 141.394531 158.394531 140.960938 C 158.511719 140.867188 158.640625 140.789062 158.78125 140.730469 C 158.867188 140.695312 158.957031 140.664062 159.046875 140.636719 C 159.414062 141.261719 160.230469 141.234375 160.71875 140.820312 C 162.21875 141.601562 163.792969 142.183594 165.441406 142.566406 C 166.945312 142.910156 168.46875 143.011719 170.007812 142.863281 C 171.542969 142.71875 173.019531 142.332031 174.433594 141.707031 C 174.664062 141.917969 174.933594 141.996094 175.242188 141.945312 C 180.519531 141.269531 185.914062 141.539062 191.230469 141.539062 L 191.390625 141.539062 C 191.734375 141.558594 192.003906 141.429688 192.199219 141.152344 C 193.507812 141.765625 194.863281 142.238281 196.269531 142.570312 C 200.304688 143.53125 204.472656 142.570312 207.867188 140.292969 C 209.328125 142.882812 209.15625 145.984375 209.082031 148.898438 C 208.164062 148.964844 207.175781 149.652344 206.652344 150.488281 Z M 220.425781 151.761719 C 220.414062 155.8125 220.277344 159.847656 220.238281 163.890625 C 219.941406 164.117188 219.800781 164.421875 219.820312 164.792969 C 219.820312 165.277344 219.878906 165.765625 219.84375 166.25 C 219.800781 166.8125 219.820312 166.898438 219.363281 166.554688 C 218.507812 165.910156 217.691406 165.015625 216.957031 164.230469 C 215.253906 162.410156 213.933594 160.152344 211.425781 159.375 C 211.347656 159.347656 211.269531 159.332031 211.1875 159.324219 C 211.460938 158.960938 211.636719 158.554688 211.71875 158.109375 C 212.039062 156.597656 211.394531 155.089844 211.496094 153.585938 C 211.59375 152.167969 209.410156 151.730469 209.3125 153.160156 C 209.234375 154.296875 209.429688 155.398438 209.535156 156.523438 C 209.625 157.445312 209.722656 158.222656 208.632812 158.144531 C 208.601562 158.074219 208.5625 158.011719 208.519531 157.953125 C 208.480469 157.902344 208.4375 157.851562 208.390625 157.808594 C 208.089844 155.945312 207.921875 154.070312 207.882812 152.1875 C 208.195312 152.105469 208.425781 151.921875 208.570312 151.632812 C 208.59375 151.589844 208.605469 151.566406 208.609375 151.558594 C 208.660156 151.492188 208.714844 151.425781 208.773438 151.367188 C 208.828125 151.304688 208.84375 151.296875 208.851562 151.289062 C 208.917969 151.234375 208.992188 151.183594 209.066406 151.136719 L 209.078125 151.15625 C 209.230469 151.410156 209.453125 151.566406 209.75 151.613281 C 210.433594 152.070312 211.621094 151.707031 211.511719 150.648438 C 211.515625 150.347656 211.566406 150.054688 211.667969 149.769531 C 211.90625 149.152344 212.195312 148.5625 212.535156 147.996094 C 213.363281 146.597656 214.296875 145.273438 215.339844 144.027344 C 216.285156 142.84375 217.296875 141.722656 218.375 140.664062 C 218.738281 140.296875 219.128906 139.960938 219.539062 139.648438 C 219.5625 139.632812 219.617188 139.601562 219.675781 139.5625 C 220.960938 143.433594 220.421875 147.761719 220.410156 151.753906 Z M 220.425781 151.761719 " fill-opacity="1" fill-rule="nonzero"/></g><path fill="#000000" d="M 173.863281 125.339844 C 173.589844 122.445312 169.972656 120.96875 167.433594 121.460938 C 163.972656 122.132812 162.761719 126.390625 165.0625 128.910156 C 165.097656 128.949219 165.132812 128.980469 165.167969 129.015625 C 167.503906 132.203125 174.269531 129.667969 173.863281 125.339844 Z M 171.660156 125.945312 C 171.457031 128.074219 167.242188 129.347656 166.648438 126.902344 C 166.585938 126.554688 166.386719 126.324219 166.054688 126.207031 C 165.988281 125.605469 166.125 125.058594 166.472656 124.566406 C 166.964844 123.84375 167.652344 123.613281 168.496094 123.589844 C 169.761719 123.542969 171.804688 124.402344 171.660156 125.941406 Z M 171.660156 125.945312 " fill-opacity="1" fill-rule="nonzero"/><g transform="matrix(1, 0, 0, 1, 93, 211)"><g clip-path="url(#cab5f8f28d)"><g fill="#000000" fill-opacity="1"><g transform="translate(1.614166, 25.719408)"><g><path d="M 13.5625 -20.84375 C 14.144531 -20.925781 14.644531 -20.851562 15.0625 -20.625 C 15.476562 -20.394531 15.800781 -20.066406 16.03125 -19.640625 C 16.257812 -19.222656 16.378906 -18.796875 16.390625 -18.359375 C 16.398438 -17.921875 16.273438 -17.523438 16.015625 -17.171875 C 15.753906 -16.828125 15.335938 -16.601562 14.765625 -16.5 C 13.742188 -16.34375 12.722656 -16.179688 11.703125 -16.015625 C 10.679688 -15.859375 9.660156 -15.703125 8.640625 -15.546875 C 8.617188 -15.546875 8.53125 -15.53125 8.375 -15.5 C 8.226562 -15.46875 8.066406 -15.441406 7.890625 -15.421875 C 7.890625 -15.273438 7.878906 -15.175781 7.859375 -15.125 C 7.898438 -14.664062 7.867188 -14.179688 7.765625 -13.671875 C 7.671875 -13.160156 7.59375 -12.671875 7.53125 -12.203125 C 7.53125 -12.148438 7.523438 -12.085938 7.515625 -12.015625 C 7.503906 -11.941406 7.5 -11.867188 7.5 -11.796875 C 9.039062 -12.035156 10.570312 -12.164062 12.09375 -12.1875 C 12.664062 -12.195312 13.128906 -12.050781 13.484375 -11.75 C 13.835938 -11.457031 14.066406 -11.082031 14.171875 -10.625 C 14.285156 -10.175781 14.285156 -9.734375 14.171875 -9.296875 C 14.066406 -8.859375 13.835938 -8.484375 13.484375 -8.171875 C 13.128906 -7.859375 12.664062 -7.695312 12.09375 -7.6875 C 10.351562 -7.664062 8.625 -7.472656 6.90625 -7.109375 C 6.738281 -5.929688 6.570312 -4.75 6.40625 -3.5625 C 6.238281 -2.382812 6.0625 -1.207031 5.875 -0.03125 C 5.78125 0.550781 5.5625 0.972656 5.21875 1.234375 C 4.875 1.492188 4.476562 1.617188 4.03125 1.609375 C 3.582031 1.597656 3.144531 1.476562 2.71875 1.25 C 2.300781 1.019531 1.976562 0.691406 1.75 0.265625 C 1.519531 -0.148438 1.445312 -0.640625 1.53125 -1.203125 C 1.925781 -3.703125 2.28125 -6.203125 2.59375 -8.703125 C 2.90625 -11.203125 3.203125 -13.703125 3.484375 -16.203125 C 3.597656 -17.273438 3.90625 -18.09375 4.40625 -18.65625 C 4.90625 -19.21875 5.695312 -19.585938 6.78125 -19.765625 C 7.894531 -19.960938 9.019531 -20.144531 10.15625 -20.3125 C 11.300781 -20.488281 12.4375 -20.664062 13.5625 -20.84375 Z M 13.5625 -20.84375 "/></g></g></g><g fill="#000000" fill-opacity="1"><g transform="translate(19.48137, 25.719408)"><g><path d="M 13.234375 -7.46875 C 13.804688 -7.507812 14.265625 -7.394531 14.609375 -7.125 C 14.953125 -6.851562 15.179688 -6.5 15.296875 -6.0625 C 15.421875 -5.625 15.421875 -5.171875 15.296875 -4.703125 C 15.179688 -4.242188 14.945312 -3.847656 14.59375 -3.515625 C 14.238281 -3.191406 13.785156 -3.007812 13.234375 -2.96875 C 11.710938 -2.863281 10.21875 -2.671875 8.75 -2.390625 C 7.28125 -2.117188 5.8125 -1.769531 4.34375 -1.34375 C 3.925781 -1.226562 3.488281 -1.253906 3.03125 -1.421875 C 2.570312 -1.597656 2.191406 -1.867188 1.890625 -2.234375 C 1.585938 -2.609375 1.457031 -3.046875 1.5 -3.546875 C 1.738281 -5.878906 1.972656 -8.210938 2.203125 -10.546875 C 2.429688 -12.890625 2.65625 -15.234375 2.875 -17.578125 C 2.9375 -18.140625 3.132812 -18.59375 3.46875 -18.9375 C 3.8125 -19.289062 4.210938 -19.519531 4.671875 -19.625 C 5.140625 -19.738281 5.585938 -19.738281 6.015625 -19.625 C 6.441406 -19.519531 6.789062 -19.296875 7.0625 -18.953125 C 7.332031 -18.617188 7.4375 -18.160156 7.375 -17.578125 C 7.195312 -15.722656 7.015625 -13.867188 6.828125 -12.015625 C 6.648438 -10.160156 6.472656 -8.316406 6.296875 -6.484375 C 8.554688 -6.960938 10.867188 -7.289062 13.234375 -7.46875 Z M 13.234375 -7.46875 "/></g></g></g><g fill="#000000" fill-opacity="1"><g transform="translate(36.359301, 25.719408)"><g><path d="M 2.84375 -18.515625 C 2.90625 -19.066406 3.101562 -19.519531 3.4375 -19.875 C 3.78125 -20.226562 4.179688 -20.457031 4.640625 -20.5625 C 5.109375 -20.675781 5.5625 -20.675781 6 -20.5625 C 6.4375 -20.457031 6.785156 -20.234375 7.046875 -19.890625 C 7.304688 -19.546875 7.40625 -19.085938 7.34375 -18.515625 C 6.769531 -13.085938 6.320312 -7.65625 6 -2.21875 C 5.957031 -1.632812 5.773438 -1.171875 5.453125 -0.828125 C 5.140625 -0.492188 4.753906 -0.265625 4.296875 -0.140625 C 3.847656 -0.0234375 3.40625 -0.0234375 2.96875 -0.140625 C 2.53125 -0.265625 2.164062 -0.492188 1.875 -0.828125 C 1.582031 -1.171875 1.457031 -1.632812 1.5 -2.21875 C 1.820312 -7.65625 2.269531 -13.085938 2.84375 -18.515625 Z M 2.84375 -18.515625 "/></g></g></g><g fill="#000000" fill-opacity="1"><g transform="translate(45.232955, 25.719408)"><g><path d="M 13.34375 -7.265625 C 13.90625 -7.398438 14.390625 -7.375 14.796875 -7.1875 C 15.210938 -7 15.535156 -6.703125 15.765625 -6.296875 C 15.992188 -5.898438 16.113281 -5.46875 16.125 -5 C 16.132812 -4.53125 16.015625 -4.101562 15.765625 -3.71875 C 15.515625 -3.34375 15.109375 -3.070312 14.546875 -2.90625 C 13.523438 -2.625 12.476562 -2.410156 11.40625 -2.265625 C 10.34375 -2.117188 9.285156 -2.113281 8.234375 -2.25 C 7.179688 -2.382812 6.175781 -2.722656 5.21875 -3.265625 C 3.976562 -3.960938 3.03125 -4.929688 2.375 -6.171875 C 1.726562 -7.421875 1.4375 -8.765625 1.5 -10.203125 C 1.582031 -11.597656 1.929688 -12.9375 2.546875 -14.21875 C 3.171875 -15.5 3.992188 -16.632812 5.015625 -17.625 C 6.046875 -18.613281 7.21875 -19.375 8.53125 -19.90625 C 9.84375 -20.4375 11.207031 -20.640625 12.625 -20.515625 C 13.207031 -20.472656 13.671875 -20.285156 14.015625 -19.953125 C 14.367188 -19.628906 14.597656 -19.238281 14.703125 -18.78125 C 14.816406 -18.320312 14.816406 -17.867188 14.703125 -17.421875 C 14.597656 -16.984375 14.367188 -16.628906 14.015625 -16.359375 C 13.671875 -16.085938 13.207031 -15.972656 12.625 -16.015625 C 11.582031 -16.097656 10.597656 -15.90625 9.671875 -15.4375 C 8.742188 -14.96875 7.957031 -14.316406 7.3125 -13.484375 C 6.675781 -12.648438 6.269531 -11.71875 6.09375 -10.6875 C 5.90625 -9.78125 5.945312 -9.050781 6.21875 -8.5 C 6.488281 -7.957031 6.894531 -7.550781 7.4375 -7.28125 C 7.976562 -7.007812 8.59375 -6.847656 9.28125 -6.796875 C 9.96875 -6.742188 10.664062 -6.757812 11.375 -6.84375 C 12.09375 -6.9375 12.75 -7.078125 13.34375 -7.265625 Z M 13.34375 -7.265625 "/></g></g></g><g fill="#000000" fill-opacity="1"><g transform="translate(62.860341, 25.719408)"><g><path d="M 15 -18.953125 C 14.394531 -17.941406 13.75 -16.9375 13.0625 -15.9375 C 12.375 -14.945312 11.582031 -14.066406 10.6875 -13.296875 C 12.601562 -11.085938 13.691406 -8.472656 13.953125 -5.453125 C 13.992188 -4.898438 13.878906 -4.445312 13.609375 -4.09375 C 13.335938 -3.738281 12.984375 -3.503906 12.546875 -3.390625 C 12.117188 -3.285156 11.675781 -3.285156 11.21875 -3.390625 C 10.757812 -3.503906 10.359375 -3.738281 10.015625 -4.09375 C 9.679688 -4.445312 9.492188 -4.898438 9.453125 -5.453125 C 9.347656 -6.535156 9.054688 -7.554688 8.578125 -8.515625 C 8.097656 -9.472656 7.46875 -10.316406 6.6875 -11.046875 C 6.488281 -8.503906 6.21875 -5.992188 5.875 -3.515625 C 5.820312 -3.109375 5.640625 -2.769531 5.328125 -2.5 C 5.015625 -2.226562 4.648438 -2.035156 4.234375 -1.921875 C 3.828125 -1.816406 3.445312 -1.816406 3.09375 -1.921875 C 2.445312 -2.097656 2.003906 -2.453125 1.765625 -2.984375 C 1.523438 -3.515625 1.445312 -4.082031 1.53125 -4.6875 C 1.90625 -7.519531 2.1875 -10.367188 2.375 -13.234375 C 2.570312 -16.109375 2.679688 -18.976562 2.703125 -21.84375 C 2.703125 -22.414062 2.847656 -22.878906 3.140625 -23.234375 C 3.441406 -23.585938 3.816406 -23.816406 4.265625 -23.921875 C 4.722656 -24.035156 5.175781 -24.035156 5.625 -23.921875 C 6.070312 -23.816406 6.445312 -23.585938 6.75 -23.234375 C 7.050781 -22.878906 7.203125 -22.414062 7.203125 -21.84375 C 7.179688 -20.863281 7.160156 -19.882812 7.140625 -18.90625 C 7.117188 -17.9375 7.078125 -16.960938 7.015625 -15.984375 C 7.617188 -16.347656 8.171875 -16.832031 8.671875 -17.4375 C 9.171875 -18.050781 9.617188 -18.695312 10.015625 -19.375 C 10.421875 -20.0625 10.78125 -20.671875 11.09375 -21.203125 C 11.394531 -21.703125 11.757812 -22.023438 12.1875 -22.171875 C 12.625 -22.328125 13.066406 -22.34375 13.515625 -22.21875 C 13.960938 -22.101562 14.351562 -21.878906 14.6875 -21.546875 C 15.019531 -21.222656 15.222656 -20.832031 15.296875 -20.375 C 15.378906 -19.925781 15.28125 -19.453125 15 -18.953125 Z M 15 -18.953125 "/></g></g></g><g fill="#000000" fill-opacity="1"><g transform="translate(79.648323, 25.719408)"><g/></g></g><g fill="#000000" fill-opacity="1"><g transform="translate(88.761796, 25.719408)"><g><path d="M 13.5625 -20.84375 C 14.144531 -20.925781 14.644531 -20.851562 15.0625 -20.625 C 15.476562 -20.394531 15.800781 -20.066406 16.03125 -19.640625 C 16.257812 -19.222656 16.378906 -18.796875 16.390625 -18.359375 C 16.398438 -17.921875 16.273438 -17.523438 16.015625 -17.171875 C 15.753906 -16.828125 15.335938 -16.601562 14.765625 -16.5 C 13.742188 -16.34375 12.722656 -16.179688 11.703125 -16.015625 C 10.679688 -15.859375 9.660156 -15.703125 8.640625 -15.546875 C 8.617188 -15.546875 8.53125 -15.53125 8.375 -15.5 C 8.226562 -15.46875 8.066406 -15.441406 7.890625 -15.421875 C 7.890625 -15.273438 7.878906 -15.175781 7.859375 -15.125 C 7.898438 -14.664062 7.867188 -14.179688 7.765625 -13.671875 C 7.671875 -13.160156 7.59375 -12.671875 7.53125 -12.203125 C 7.53125 -12.148438 7.523438 -12.085938 7.515625 -12.015625 C 7.503906 -11.941406 7.5 -11.867188 7.5 -11.796875 C 9.039062 -12.035156 10.570312 -12.164062 12.09375 -12.1875 C 12.664062 -12.195312 13.128906 -12.050781 13.484375 -11.75 C 13.835938 -11.457031 14.066406 -11.082031 14.171875 -10.625 C 14.285156 -10.175781 14.285156 -9.734375 14.171875 -9.296875 C 14.066406 -8.859375 13.835938 -8.484375 13.484375 -8.171875 C 13.128906 -7.859375 12.664062 -7.695312 12.09375 -7.6875 C 10.351562 -7.664062 8.625 -7.472656 6.90625 -7.109375 C 6.738281 -5.929688 6.570312 -4.75 6.40625 -3.5625 C 6.238281 -2.382812 6.0625 -1.207031 5.875 -0.03125 C 5.78125 0.550781 5.5625 0.972656 5.21875 1.234375 C 4.875 1.492188 4.476562 1.617188 4.03125 1.609375 C 3.582031 1.597656 3.144531 1.476562 2.71875 1.25 C 2.300781 1.019531 1.976562 0.691406 1.75 0.265625 C 1.519531 -0.148438 1.445312 -0.640625 1.53125 -1.203125 C 1.925781 -3.703125 2.28125 -6.203125 2.59375 -8.703125 C 2.90625 -11.203125 3.203125 -13.703125 3.484375 -16.203125 C 3.597656 -17.273438 3.90625 -18.09375 4.40625 -18.65625 C 4.90625 -19.21875 5.695312 -19.585938 6.78125 -19.765625 C 7.894531 -19.960938 9.019531 -20.144531 10.15625 -20.3125 C 11.300781 -20.488281 12.4375 -20.664062 13.5625 -20.84375 Z M 13.5625 -20.84375 "/></g></g></g><g fill="#000000" fill-opacity="1"><g transform="translate(106.629001, 25.719408)"><g><path d="M 2.84375 -18.515625 C 2.90625 -19.066406 3.101562 -19.519531 3.4375 -19.875 C 3.78125 -20.226562 4.179688 -20.457031 4.640625 -20.5625 C 5.109375 -20.675781 5.5625 -20.675781 6 -20.5625 C 6.4375 -20.457031 6.785156 -20.234375 7.046875 -19.890625 C 7.304688 -19.546875 7.40625 -19.085938 7.34375 -18.515625 C 6.769531 -13.085938 6.320312 -7.65625 6 -2.21875 C 5.957031 -1.632812 5.773438 -1.171875 5.453125 -0.828125 C 5.140625 -0.492188 4.753906 -0.265625 4.296875 -0.140625 C 3.847656 -0.0234375 3.40625 -0.0234375 2.96875 -0.140625 C 2.53125 -0.265625 2.164062 -0.492188 1.875 -0.828125 C 1.582031 -1.171875 1.457031 -1.632812 1.5 -2.21875 C 1.820312 -7.65625 2.269531 -13.085938 2.84375 -18.515625 Z M 2.84375 -18.515625 "/></g></g></g><g fill="#000000" fill-opacity="1"><g transform="translate(115.502655, 25.719408)"><g><path d="M 13.203125 -18.203125 C 13.273438 -18.785156 13.484375 -19.207031 13.828125 -19.46875 C 14.171875 -19.726562 14.566406 -19.851562 15.015625 -19.84375 C 15.460938 -19.832031 15.894531 -19.710938 16.3125 -19.484375 C 16.738281 -19.253906 17.070312 -18.921875 17.3125 -18.484375 C 17.550781 -18.054688 17.628906 -17.566406 17.546875 -17.015625 C 16.722656 -11.492188 15.703125 -6.007812 14.484375 -0.5625 C 14.390625 -0.125 14.164062 0.234375 13.8125 0.515625 C 13.46875 0.796875 13.0625 0.96875 12.59375 1.03125 C 12.132812 1.101562 11.703125 1.050781 11.296875 0.875 C 10.890625 0.707031 10.582031 0.40625 10.375 -0.03125 C 9.914062 -1.132812 9.445312 -2.226562 8.96875 -3.3125 C 8.488281 -4.40625 8.007812 -5.5 7.53125 -6.59375 C 7.226562 -5.300781 6.9375 -4 6.65625 -2.6875 C 6.375 -1.375 6.113281 -0.0546875 5.875 1.265625 C 5.78125 1.816406 5.550781 2.222656 5.1875 2.484375 C 4.832031 2.742188 4.425781 2.875 3.96875 2.875 C 3.519531 2.875 3.085938 2.753906 2.671875 2.515625 C 2.265625 2.273438 1.945312 1.945312 1.71875 1.53125 C 1.488281 1.113281 1.4375 0.625 1.5625 0.0625 C 2.4375 -4.695312 3.515625 -9.414062 4.796875 -14.09375 C 4.921875 -14.539062 5.160156 -14.898438 5.515625 -15.171875 C 5.878906 -15.453125 6.285156 -15.632812 6.734375 -15.71875 C 7.179688 -15.800781 7.601562 -15.753906 8 -15.578125 C 8.40625 -15.410156 8.707031 -15.097656 8.90625 -14.640625 L 11.546875 -8.546875 C 11.867188 -10.148438 12.164062 -11.753906 12.4375 -13.359375 C 12.707031 -14.972656 12.960938 -16.585938 13.203125 -18.203125 Z M 13.203125 -18.203125 "/></g></g></g><g fill="#000000" fill-opacity="1"><g transform="translate(134.569005, 25.719408)"><g><path d="M 6.515625 -21.515625 C 7.691406 -21.296875 8.828125 -20.960938 9.921875 -20.515625 C 11.023438 -20.078125 12.046875 -19.4375 12.984375 -18.59375 C 14.003906 -17.675781 14.796875 -16.582031 15.359375 -15.3125 C 15.921875 -14.039062 16.117188 -12.71875 15.953125 -11.34375 C 15.816406 -10.15625 15.441406 -9.0625 14.828125 -8.0625 C 14.222656 -7.0625 13.476562 -6.1875 12.59375 -5.4375 C 11.613281 -4.59375 10.457031 -3.914062 9.125 -3.40625 C 7.800781 -2.894531 6.53125 -2.441406 5.3125 -2.046875 C 4.96875 -1.941406 4.617188 -1.847656 4.265625 -1.765625 C 3.921875 -1.691406 3.578125 -1.671875 3.234375 -1.703125 C 2.753906 -1.785156 2.335938 -2.015625 1.984375 -2.390625 C 1.640625 -2.773438 1.476562 -3.207031 1.5 -3.6875 C 1.632812 -9.125 1.90625 -14.582031 2.3125 -20.0625 C 2.351562 -20.6875 2.554688 -21.117188 2.921875 -21.359375 C 3.296875 -21.597656 3.738281 -21.726562 4.25 -21.75 C 4.757812 -21.769531 5.253906 -21.738281 5.734375 -21.65625 C 5.992188 -21.613281 6.253906 -21.566406 6.515625 -21.515625 Z M 11.3125 -11.0625 C 11.59375 -11.882812 11.632812 -12.617188 11.4375 -13.265625 C 11.25 -13.921875 10.90625 -14.492188 10.40625 -14.984375 C 9.90625 -15.472656 9.316406 -15.878906 8.640625 -16.203125 C 7.960938 -16.523438 7.269531 -16.753906 6.5625 -16.890625 C 6.363281 -13.585938 6.207031 -10.328125 6.09375 -7.109375 C 6.832031 -7.347656 7.546875 -7.625 8.234375 -7.9375 C 8.921875 -8.25 9.535156 -8.65625 10.078125 -9.15625 C 10.617188 -9.65625 11.03125 -10.289062 11.3125 -11.0625 Z M 11.3125 -11.0625 "/></g></g></g><g fill="#000000" fill-opacity="1"><g transform="translate(152.076469, 25.719408)"><g><path d="M 12.515625 -6.359375 C 13.085938 -6.335938 13.550781 -6.171875 13.90625 -5.859375 C 14.257812 -5.554688 14.488281 -5.175781 14.59375 -4.71875 C 14.707031 -4.269531 14.707031 -3.820312 14.59375 -3.375 C 14.488281 -2.925781 14.257812 -2.554688 13.90625 -2.265625 C 13.550781 -1.972656 13.085938 -1.847656 12.515625 -1.890625 C 11.148438 -1.929688 9.785156 -1.921875 8.421875 -1.859375 C 7.066406 -1.796875 5.707031 -1.65625 4.34375 -1.4375 C 3.925781 -1.351562 3.488281 -1.382812 3.03125 -1.53125 C 2.570312 -1.6875 2.1875 -1.9375 1.875 -2.28125 C 1.5625 -2.625 1.445312 -3.0625 1.53125 -3.59375 C 1.875 -6.375 2.25 -9.144531 2.65625 -11.90625 C 3.0625 -14.664062 3.503906 -17.414062 3.984375 -20.15625 C 4.046875 -20.5 4.164062 -20.800781 4.34375 -21.0625 C 4.507812 -21.34375 4.738281 -21.570312 5.03125 -21.75 C 5.332031 -21.925781 5.707031 -22.023438 6.15625 -22.046875 C 8.3125 -22.128906 10.46875 -22.09375 12.625 -21.9375 C 13.207031 -21.894531 13.671875 -21.707031 14.015625 -21.375 C 14.367188 -21.039062 14.597656 -20.648438 14.703125 -20.203125 C 14.816406 -19.753906 14.816406 -19.304688 14.703125 -18.859375 C 14.597656 -18.421875 14.367188 -18.0625 14.015625 -17.78125 C 13.671875 -17.507812 13.207031 -17.394531 12.625 -17.4375 C 11.144531 -17.53125 9.632812 -17.578125 8.09375 -17.578125 C 8 -16.992188 7.898438 -16.410156 7.796875 -15.828125 C 7.703125 -15.253906 7.613281 -14.675781 7.53125 -14.09375 C 8.351562 -14.070312 9.144531 -14.035156 9.90625 -13.984375 C 10.5 -13.898438 11.019531 -13.664062 11.46875 -13.28125 C 11.925781 -12.90625 12.15625 -12.390625 12.15625 -11.734375 C 12.15625 -11.347656 12.046875 -10.972656 11.828125 -10.609375 C 11.617188 -10.253906 11.34375 -9.96875 11 -9.75 C 10.664062 -9.53125 10.300781 -9.441406 9.90625 -9.484375 C 8.882812 -9.578125 7.863281 -9.613281 6.84375 -9.59375 C 6.757812 -9.039062 6.675781 -8.476562 6.59375 -7.90625 C 6.519531 -7.332031 6.441406 -6.757812 6.359375 -6.1875 C 7.378906 -6.28125 8.398438 -6.347656 9.421875 -6.390625 C 10.441406 -6.429688 11.472656 -6.421875 12.515625 -6.359375 Z M 12.515625 -6.359375 "/></g></g></g><g fill="#000000" fill-opacity="1"><g transform="translate(168.354813, 25.719408)"><g><path d="M 17.0625 -2.84375 C 17.40625 -2.382812 17.546875 -1.9375 17.484375 -1.5 C 17.429688 -1.0625 17.242188 -0.6875 16.921875 -0.375 C 16.597656 -0.0625 16.210938 0.15625 15.765625 0.28125 C 15.316406 0.414062 14.859375 0.421875 14.390625 0.296875 C 13.921875 0.179688 13.515625 -0.101562 13.171875 -0.5625 C 12.265625 -1.8125 11.253906 -2.957031 10.140625 -4 C 9.035156 -5.050781 7.84375 -6 6.5625 -6.84375 C 6.46875 -5.644531 6.375 -4.453125 6.28125 -3.265625 C 6.195312 -2.085938 6.101562 -0.898438 6 0.296875 C 5.957031 0.878906 5.769531 1.335938 5.4375 1.671875 C 5.113281 2.015625 4.71875 2.242188 4.25 2.359375 C 3.789062 2.484375 3.347656 2.484375 2.921875 2.359375 C 2.492188 2.242188 2.140625 2.015625 1.859375 1.671875 C 1.578125 1.335938 1.457031 0.878906 1.5 0.296875 C 1.675781 -1.898438 1.8125 -4.128906 1.90625 -6.390625 C 2.007812 -8.648438 2.285156 -10.859375 2.734375 -13.015625 C 2.953125 -14.117188 3.359375 -15.191406 3.953125 -16.234375 C 4.554688 -17.273438 5.320312 -18.140625 6.25 -18.828125 C 7.1875 -19.515625 8.273438 -19.878906 9.515625 -19.921875 C 10.367188 -19.960938 11.179688 -19.800781 11.953125 -19.4375 C 12.722656 -19.082031 13.378906 -18.585938 13.921875 -17.953125 C 14.460938 -17.328125 14.828125 -16.609375 15.015625 -15.796875 C 15.203125 -14.984375 15.15625 -14.148438 14.875 -13.296875 C 14.59375 -12.453125 14.132812 -11.644531 13.5 -10.875 C 12.875 -10.101562 12.15625 -9.4375 11.34375 -8.875 C 13.476562 -7.15625 15.382812 -5.144531 17.0625 -2.84375 Z M 10.65625 -14.875 C 10.570312 -15.28125 10.414062 -15.503906 10.1875 -15.546875 C 9.957031 -15.597656 9.695312 -15.535156 9.40625 -15.359375 C 9.113281 -15.179688 8.828125 -14.953125 8.546875 -14.671875 C 8.265625 -14.390625 8.023438 -14.113281 7.828125 -13.84375 C 7.628906 -13.570312 7.5 -13.378906 7.4375 -13.265625 C 7.28125 -12.816406 7.140625 -12.316406 7.015625 -11.765625 C 7.421875 -11.816406 7.78125 -11.9375 8.09375 -12.125 C 8.414062 -12.320312 8.726562 -12.5625 9.03125 -12.84375 C 9.144531 -12.957031 9.34375 -13.144531 9.625 -13.40625 C 9.90625 -13.664062 10.15625 -13.9375 10.375 -14.21875 C 10.59375 -14.5 10.6875 -14.71875 10.65625 -14.875 Z M 10.65625 -14.875 "/></g></g></g></g></g></svg>